<?xml version="1.0" encoding="utf-8"?><!-- Uploaded to: SVG Repo, www.svgrepo.com, Generator: SVG Repo Mixer Tools -->
<svg fill="#000000" width="800px" height="800px" viewBox="0 0 24 24" id="share-alt" data-name="Flat Color" xmlns="http://www.w3.org/2000/svg" class="icon flat-color"><path id="secondary" d="M21.62,6.22l-5-4a1,1,0,0,0-1.05-.12A1,1,0,0,0,15,3V4.19a9.79,9.79,0,0,0-7,7.65,1,1,0,0,0,.62,1.09A1,1,0,0,0,9,13a1,1,0,0,0,.83-.45C11,10.78,13.58,10.24,15,10.07V11a1,1,0,0,0,.57.9,1,1,0,0,0,1.05-.12l5-4a1,1,0,0,0,0-1.56Z" style="fill: rgb(44, 169, 188);"></path><path id="primary" d="M17.25,12.56A2,2,0,0,1,16,13a1.94,1.94,0,0,1-.86-.2A2,2,0,0,1,14,11.25a5.44,5.44,0,0,0-3.36,1.86A2,2,0,0,1,9,14a2.07,2.07,0,0,1-.74-.14A2,2,0,0,1,7,11.67,11.13,11.13,0,0,1,12.7,4H4A2,2,0,0,0,2,6V19a2,2,0,0,0,2,2H20a2,2,0,0,0,2-2V9a.83.83,0,0,0,0-.22Z" style="fill: rgb(0, 0, 0);"></path></svg>