<?xml version="1.0" encoding="utf-8"?><!-- Uploaded to: SVG Repo, www.svgrepo.com, Generator: SVG Repo Mixer Tools -->
<svg fill="#000000" width="800px" height="800px" viewBox="0 0 24 24" id="mic" data-name="Flat Line" xmlns="http://www.w3.org/2000/svg" class="icon flat-line"><path id="secondary" d="M12,15h0a4,4,0,0,1-4-4V7a4,4,0,0,1,4-4h0a4,4,0,0,1,4,4v4A4,4,0,0,1,12,15Z" style="fill: rgb(44, 169, 188); stroke-width: 2;"></path><path id="primary" d="M18.24,16A8,8,0,0,1,5.76,16" style="fill: none; stroke: rgb(0, 0, 0); stroke-linecap: round; stroke-linejoin: round; stroke-width: 2;"></path><path id="primary-2" data-name="primary" d="M12,19v2m4-10V7a4,4,0,0,0-4-4h0A4,4,0,0,0,8,7v4a4,4,0,0,0,4,4h0A4,4,0,0,0,16,11Z" style="fill: none; stroke: rgb(0, 0, 0); stroke-linecap: round; stroke-linejoin: round; stroke-width: 2;"></path></svg>