<?xml version="1.0" encoding="utf-8"?><!-- Uploaded to: SVG Repo, www.svgrepo.com, Generator: SVG Repo Mixer Tools -->
<svg fill="#000000" width="800px" height="800px" viewBox="0 0 24 24" id="energy-drink" data-name="Flat Color" xmlns="http://www.w3.org/2000/svg" class="icon flat-color"><path id="primary" d="M18.9,7.42,18,2.8A1,1,0,0,0,17,2H7a1,1,0,0,0-1,.8L5.1,7.42a4.59,4.59,0,0,0-.1,1v9a5,5,0,0,0,.26,1.58l.79,2.39A1,1,0,0,0,7,22H17a1,1,0,0,0,.95-.68l.79-2.39A5,5,0,0,0,19,17.35v-9A4.59,4.59,0,0,0,18.9,7.42Z" style="fill: rgb(0, 0, 0);"></path><path id="secondary" d="M18,4H6A1,1,0,0,1,6,2H18a1,1,0,0,1,0,2Zm1,17a1,1,0,0,0-1-1H6a1,1,0,0,0,0,2H18A1,1,0,0,0,19,21Zm-6.11-5.55,1.5-3A1,1,0,0,0,13.5,11H12.12l.77-1.55a1,1,0,0,0-1.78-.9l-1.5,3A1,1,0,0,0,10.5,13h1.38l-.77,1.55a1,1,0,0,0,.44,1.34A.93.93,0,0,0,12,16,1,1,0,0,0,12.89,15.45Z" style="fill: rgb(44, 169, 188);"></path></svg>